<svg width="51" height="51" viewBox="0 0 51 51" fill="none" xmlns="http://www.w3.org/2000/svg">
<path fill-rule="evenodd" clip-rule="evenodd" d="M25.8 0.654297C11.9929 0.654297 0.800049 11.8472 0.800049 25.6543C0.800049 39.4614 11.9929 50.6543 25.8 50.6543C39.6072 50.6543 50.8 39.4614 50.8 25.6543C50.8 19.0239 48.1661 12.665 43.4777 7.97663C38.7893 3.28822 32.4305 0.654297 25.8 0.654297ZM45.8002 25.6539C42.9373 24.7943 39.9644 24.3564 36.9752 24.3539C35.1968 24.3776 33.4237 24.5533 31.6752 24.8789C31.0502 23.3539 30.4002 21.8789 29.7002 20.4039C33.8116 18.3497 37.5607 15.6392 40.8002 12.3789C44.0451 16.037 45.8255 20.7641 45.8002 25.6539ZM27.9753 17.1043C31.6846 15.2435 35.063 12.7858 37.9753 9.8293C34.4878 7.13411 30.2078 5.66641 25.8003 5.6543C24.182 5.66082 22.5704 5.86227 21.0003 6.2543C23.6078 9.68132 25.9401 13.3093 27.9753 17.1043ZM17.35 7.55432C20.0595 11.0493 22.476 14.7619 24.575 18.6543C20.1838 20.3691 15.514 21.2589 10.8 21.2793C9.32125 21.2632 7.84432 21.1714 6.37498 21.0043C7.7955 15.0842 11.8352 10.1335 17.35 7.55432ZM5.80004 24.7044V25.6544C5.81163 30.5872 7.64578 35.3418 10.95 39.0044C14.8401 32.6783 20.9012 27.9858 28 25.8044C27.475 24.5044 26.875 23.2544 26.275 22.0044C21.356 23.9877 16.1038 25.0144 10.8 25.0294C9.12829 25.0236 7.45847 24.9151 5.80004 24.7044ZM13.7505 41.5792C17.1797 35.6449 22.7541 31.2516 29.3255 29.3042C31.0833 34.1617 32.3317 39.1887 33.0505 44.3042C26.5883 46.8465 19.2669 45.8223 13.7505 41.6042V41.5792ZM33.0254 28.4543C34.6209 33.0152 35.8089 37.7086 36.5754 42.4793C41.1656 39.5477 44.3618 34.8709 45.4254 29.5293C42.7005 28.6216 39.8475 28.1573 36.9754 28.1543C35.6535 28.1663 34.3339 28.2665 33.0254 28.4543Z" fill="#020E35"/>
</svg>
