<svg width="50" height="52" viewBox="0 0 50 52" fill="none" xmlns="http://www.w3.org/2000/svg">
<path d="M50 5.82096V45.4876C50 48.6172 47.5127 51.1543 44.4444 51.1543H34.0278C33.2607 51.1543 32.6389 50.52 32.6389 49.7376V32.7376H39.1389C39.799 32.7378 40.368 32.264 40.5 31.6043L41.5 26.5043C41.5413 26.2983 41.4907 26.0842 41.3619 25.92C41.2331 25.7558 41.0394 25.6585 40.8333 25.6543H32.6389V16.446C32.6389 16.0548 32.9498 15.7376 33.3333 15.7376H40.2778C41.0448 15.7376 41.6667 15.1034 41.6667 14.321V10.071C41.6667 9.28856 41.0448 8.6543 40.2778 8.6543H33.3333C28.731 8.6543 25 12.4599 25 17.1543V25.6543H21.5833C20.8163 25.6543 20.1944 26.2886 20.1944 27.071V31.321C20.1944 32.1034 20.8163 32.7376 21.5833 32.7376H25V49.7376C25 50.52 24.3782 51.1543 23.6111 51.1543H5.55556C2.48731 51.1543 0 48.6172 0 45.4876V5.82096C0 2.69135 2.48731 0.154297 5.55556 0.154297H44.4444C47.5127 0.154297 50 2.69135 50 5.82096Z" fill="#020E35"/>
</svg>
