<svg width="51" height="51" viewBox="0 0 51 51" fill="none" xmlns="http://www.w3.org/2000/svg">
<path fill-rule="evenodd" clip-rule="evenodd" d="M5.9999 0.454102H45.1999C48.2927 0.454102 50.7999 2.96131 50.7999 6.0541V45.2541C50.7999 48.3469 48.2927 50.8541 45.1999 50.8541H5.9999C2.90711 50.8541 0.399902 48.3469 0.399902 45.2541V6.0541C0.399902 2.96131 2.90711 0.454102 5.9999 0.454102ZM14.3999 42.4541C15.1731 42.4541 15.7999 41.8273 15.7999 41.0541V21.4541C15.7999 20.6809 15.1731 20.0541 14.3999 20.0541H10.1999C9.4267 20.0541 8.7999 20.6809 8.7999 21.4541V41.0541C8.7999 41.8273 9.4267 42.4541 10.1999 42.4541H14.3999ZM12.2999 17.2541C9.98031 17.2541 8.0999 15.3737 8.0999 13.0541C8.0999 10.7345 9.98031 8.8541 12.2999 8.8541C14.6195 8.8541 16.4999 10.7345 16.4999 13.0541C16.4999 15.3737 14.6195 17.2541 12.2999 17.2541ZM40.9999 42.4542C41.7731 42.4542 42.3999 41.8274 42.3999 41.0542V28.1742C42.4908 23.7244 39.2012 19.9268 34.7839 19.3822C31.6956 19.1001 28.703 20.5425 26.9999 23.1342V21.4542C26.9999 20.681 26.3731 20.0542 25.5999 20.0542H21.3999C20.6267 20.0542 19.9999 20.681 19.9999 21.4542V41.0542C19.9999 41.8274 20.6267 42.4542 21.3999 42.4542H25.5999C26.3731 42.4542 26.9999 41.8274 26.9999 41.0542V30.5542C26.9999 28.2346 28.8803 26.3542 31.1999 26.3542C33.5195 26.3542 35.3999 28.2346 35.3999 30.5542V41.0542C35.3999 41.8274 36.0267 42.4542 36.7999 42.4542H40.9999Z" fill="#020E35"/>
</svg>
