<svg width="51" height="51" viewBox="0 0 51 51" fill="none" xmlns="http://www.w3.org/2000/svg">
<path fill-rule="evenodd" clip-rule="evenodd" d="M36.4 0.454102H14C6.26801 0.454102 0 6.72212 0 14.4541V36.8541C0 44.5861 6.26801 50.8541 14 50.8541H36.4C44.132 50.8541 50.4 44.5861 50.4 36.8541V14.4541C50.4 6.72212 44.132 0.454102 36.4 0.454102ZM45.5 36.8541C45.4846 41.8735 41.4194 45.9387 36.4 45.9541H14C8.98059 45.9387 4.91537 41.8735 4.9 36.8541V14.4541C4.91537 9.43469 8.98059 5.36948 14 5.3541H36.4C41.4194 5.36948 45.4846 9.43469 45.5 14.4541V36.8541ZM38.5 15.1541C40.0464 15.1541 41.3 13.9005 41.3 12.3541C41.3 10.8077 40.0464 9.5541 38.5 9.5541C36.9536 9.5541 35.7 10.8077 35.7 12.3541C35.7 13.9005 36.9536 15.1541 38.5 15.1541ZM25.2 13.0541C18.2412 13.0541 12.6 18.6953 12.6 25.6541C12.6 32.6129 18.2412 38.2541 25.2 38.2541C32.1588 38.2541 37.8 32.6129 37.8 25.6541C37.8075 22.3101 36.4824 19.1009 34.1178 16.7364C31.7532 14.3718 28.544 13.0467 25.2 13.0541ZM17.5 25.6541C17.5 29.9067 20.9474 33.3541 25.2 33.3541C29.4526 33.3541 32.9 29.9067 32.9 25.6541C32.9 21.4015 29.4526 17.9541 25.2 17.9541C20.9474 17.9541 17.5 21.4015 17.5 25.6541Z" fill="#020E35"/>
</svg>
