<svg width="80" height="81" viewBox="0 0 80 81" fill="none" xmlns="http://www.w3.org/2000/svg">
<rect y="80.1079" width="80" height="80" rx="40" transform="rotate(-90 0 80.1079)" fill="#2B2B2B"/>
<path d="M18.0542 38.5484C17.4484 38.8513 17.4484 39.8358 18.0542 40.1387C22.7495 42.7136 27.5205 45.0612 32.6702 46.4244C33.4275 46.5758 34.1848 45.7428 33.7304 45.0612C32.6702 43.5466 31.3828 42.2592 29.8682 41.1232C40.4704 41.4262 51.4513 42.865 61.9021 40.3659C62.6594 40.2145 62.5079 38.9272 61.7505 39.0029C50.9211 40.3659 40.1674 39.3057 29.3379 39.1544C30.4739 37.867 31.6098 36.5795 32.7458 35.3679C33.2759 34.8377 32.973 33.7017 32.0642 33.7774C27.0661 34.3834 22.3709 36.0494 18.0542 38.5484ZM27.0661 39.3814C26.3846 39.8358 26.536 41.1232 27.5963 41.1232C27.672 41.1232 27.7477 41.1232 27.7477 41.1232C28.6565 42.032 29.5652 42.865 30.474 43.8495C26.9904 42.6378 23.734 41.1232 20.4776 39.3816C23.4311 37.867 26.4603 36.731 29.7167 36.1252C28.9594 36.9582 28.2021 37.867 27.3691 38.7001C27.0661 38.8513 26.9904 39.1544 27.0661 39.3814Z" fill="white"/>
<path d="M19.6001 38.9081L31.2001 35.3081L28.0001 39.7081C29.4668 41.4414 32.1601 44.9881 31.2001 45.3081C30.2401 45.6281 23.0668 41.1748 19.6001 38.9081Z" fill="white"/>
</svg>
