<svg width="55" height="60" viewBox="0 0 55 60" fill="none" xmlns="http://www.w3.org/2000/svg">
<g clip-path="url(#clip0_75_6917)">
<path d="M35.0065 22.7912C35.3135 23.1 35.7048 23.3103 36.1308 23.3954C36.5567 23.4806 36.9982 23.4369 37.3995 23.2698C37.8008 23.1028 38.1437 22.8198 38.385 22.4567C38.6263 22.0936 38.7551 21.6668 38.7551 21.2302C38.7551 20.7936 38.6263 20.3667 38.385 20.0036C38.1437 19.6406 37.8008 19.3576 37.3995 19.1905C36.9982 19.0234 36.5567 18.9797 36.1308 19.0649C35.7048 19.1501 35.3135 19.3604 35.0065 19.6692C34.5946 20.0832 34.3633 20.6447 34.3633 21.2302C34.3633 21.8157 34.5946 22.3772 35.0065 22.7912Z" fill="#FF5678"/>
<path d="M26.4419 26.9602L12.8377 40.6376C12.5486 40.9283 12.3192 41.2733 12.1627 41.6532C12.0062 42.033 11.9256 42.44 11.9256 42.8512C11.9256 43.2623 12.006 43.6694 12.1625 44.0492C12.3189 44.429 12.5483 44.7742 12.8375 45.0649C13.1266 45.3557 13.4698 45.5862 13.8476 45.7436C14.2254 45.901 14.6303 45.9819 15.0392 45.982C15.4481 45.982 15.8531 45.901 16.2309 45.7437C16.6087 45.5865 16.952 45.3559 17.2411 45.0652L22.9911 39.2843C23.2234 39.1103 23.5102 39.0261 23.7992 39.0471C24.0882 39.0679 24.36 39.1927 24.5652 39.3983C24.7942 39.6274 24.9241 39.9381 24.9266 40.263C24.929 40.5878 24.8037 40.9006 24.578 41.133L20.369 45.3647C19.785 45.9518 19.457 46.7481 19.457 47.5784C19.4571 48.4087 19.7853 49.2049 20.3692 49.792C20.9532 50.3791 21.7453 50.7088 22.5711 50.7088C23.397 50.7087 24.189 50.3789 24.7729 49.7917L36.5052 37.9958C36.6176 37.8827 36.7511 37.7931 36.8981 37.7319C37.045 37.6706 37.2024 37.6392 37.3615 37.6392C37.5205 37.6392 37.6779 37.6706 37.8249 37.7319C37.9717 37.7931 38.1053 37.8827 38.2177 37.9958C38.3302 38.1088 38.4193 38.243 38.4802 38.3907C38.5411 38.5384 38.5724 38.6968 38.5724 38.8567C38.5724 39.0165 38.5411 39.1748 38.4802 39.3225C38.4193 39.4703 38.3302 39.6045 38.2177 39.7175L37.4932 40.4428C36.9093 41.03 36.5813 41.8262 36.5814 42.6566C36.5814 43.4869 36.9095 44.2831 37.4936 44.8702C38.0775 45.4572 38.8696 45.787 39.6955 45.7869C40.5213 45.7869 41.3132 45.457 41.8972 44.8699L46.8179 39.9227C47.4019 39.3357 47.73 38.5394 47.7301 37.7091C47.7301 36.8788 47.4021 36.0825 46.8182 35.4954C46.2342 34.9082 45.4423 34.5784 44.6164 34.5783C43.7905 34.5783 42.9985 34.908 42.4145 35.4951L41.7005 36.2155C41.4733 36.4437 41.1652 36.572 40.8439 36.572C40.5227 36.5719 40.2147 36.4436 39.9876 36.2151C39.7604 35.9868 39.633 35.677 39.633 35.3541C39.633 35.0311 39.7607 34.7214 39.9879 34.493L47.3431 27.102C47.9271 26.5149 48.2551 25.7185 48.255 24.8883C48.2549 24.0579 47.9268 23.2617 47.3429 22.6747C46.7588 22.0875 45.9668 21.7578 45.141 21.7579C44.3151 21.7579 43.5231 22.0878 42.9391 22.6749L28.0607 37.6304C27.8295 37.8573 27.5186 37.9834 27.1955 37.9811C26.8724 37.9788 26.5632 37.8483 26.3353 37.618C26.1308 37.4114 26.007 37.1378 25.9864 36.8471C25.9658 36.5564 26.0498 36.2679 26.2231 36.0343L35.6869 26.5208C36.2583 25.9311 36.5757 25.1389 36.5703 24.3155C36.5649 23.4923 36.2373 22.7042 35.6582 22.1221C35.0791 21.5399 34.2954 21.2105 33.4765 21.2051C32.6576 21.1997 31.8695 21.5187 31.2829 22.0932L29.4925 23.8932C29.2624 24.0296 28.9938 24.0854 28.7287 24.0519C28.4637 24.0185 28.2171 23.8977 28.0276 23.7084C27.7985 23.4793 27.6686 23.1686 27.6662 22.8437C27.6638 22.5188 27.7891 22.2061 28.0147 21.9737L35.074 14.8759C35.6454 14.2862 35.9627 13.4939 35.9573 12.6706C35.952 11.8473 35.6242 11.0592 35.0453 10.4771C34.4662 9.89493 33.6823 9.56551 32.8635 9.56013C32.0446 9.55474 31.2566 9.87382 30.67 10.4483L18.9352 22.2442C18.7081 22.4725 18.4 22.6008 18.0788 22.6007C17.7575 22.6006 17.4496 22.4723 17.2224 22.2439C16.9953 22.0155 16.8677 21.7057 16.8678 21.3828C16.8679 21.0599 16.9956 20.7501 17.2227 20.5218L20.5185 17.2108C20.8164 16.9221 21.054 16.5767 21.2175 16.1946C21.3811 15.8126 21.4672 15.4016 21.471 14.9857C21.4749 14.5698 21.3961 14.1573 21.2396 13.7723C21.083 13.3873 20.8518 13.0376 20.5592 12.7435C20.2667 12.4493 19.9188 12.2168 19.5359 12.0594C19.1529 11.902 18.7426 11.8229 18.3289 11.8267C17.9153 11.8305 17.5065 11.9172 17.1265 12.0816C16.7465 12.246 16.4029 12.4849 16.1158 12.7844L8.62563 20.3142C8.04168 20.9012 7.71354 21.6975 7.71346 22.5278C7.71346 22.9388 7.79391 23.346 7.95037 23.7258C8.10683 24.1056 8.33622 24.4508 8.62537 24.7415C8.91444 25.0322 9.25771 25.2628 9.63552 25.4201C10.0133 25.5775 10.4182 25.6585 10.8271 25.6586C11.6529 25.6586 12.445 25.3288 13.029 24.7418L13.7419 24.0251C13.969 23.7967 14.277 23.6684 14.5982 23.6683C14.9194 23.6682 15.2276 23.7965 15.4547 24.0248C15.6819 24.2531 15.8095 24.5629 15.8096 24.8858C15.8096 25.2087 15.6821 25.5185 15.455 25.7468L8.09974 33.138C7.52836 33.7278 7.21099 34.5201 7.21638 35.3433C7.22176 36.1666 7.54939 36.9546 8.12846 37.5368C8.70754 38.1189 9.49129 38.4483 10.3102 38.4538C11.1291 38.4592 11.9171 38.1401 12.5037 37.5656L24.5314 25.4751C24.7627 25.2482 25.0736 25.1223 25.3968 25.1247C25.7199 25.1271 26.029 25.2577 26.2568 25.488C26.4452 25.6783 26.5655 25.926 26.599 26.1924C26.6325 26.4588 26.5773 26.7288 26.4419 26.9602Z" fill="#FF5678"/>
</g>
<defs>
<clipPath id="clip0_75_6917">
<rect width="54.8688" height="59.6924" fill="white" transform="translate(0 0.153809)"/>
</clipPath>
</defs>
</svg>
