<svg width="80" height="81" viewBox="0 0 80 81" fill="none" xmlns="http://www.w3.org/2000/svg">
<rect x="80" y="0.10791" width="80" height="80" rx="40" transform="rotate(90 80 0.10791)" fill="#2B2B2B"/>
<path d="M61.9455 41.6674C62.5514 41.3645 62.5514 40.38 61.9455 40.0771C57.2502 37.5023 52.4792 35.1546 47.3296 33.7915C46.5723 33.64 45.815 34.473 46.2694 35.1546C47.3296 36.6692 48.617 37.9566 50.1316 39.0926C39.5294 38.7897 28.5485 37.3508 18.0977 39.8499C17.3404 40.0014 17.4918 41.2886 18.2493 41.2129C29.0787 39.8499 39.8324 40.9101 50.6618 41.0615C49.5259 42.3489 48.3899 43.6363 47.254 44.848C46.7239 45.3781 47.0268 46.5142 47.9355 46.4384C52.9336 45.8325 57.6289 44.1664 61.9455 41.6674ZM52.9336 40.8344C53.6152 40.38 53.4637 39.0926 52.4035 39.0926C52.3278 39.0926 52.252 39.0926 52.252 39.0926C51.3433 38.1838 50.4345 37.3508 49.5258 36.3663C53.0093 37.578 56.2657 39.0926 59.5222 40.8343C56.5687 42.3489 53.5395 43.4848 50.2831 44.0907C51.0404 43.2576 51.7977 42.3489 52.6307 41.5157C52.9336 41.3645 53.0093 41.0615 52.9336 40.8344Z" fill="white"/>
<path d="M60.3999 41.3077L48.7999 44.9077L51.9999 40.5077C50.5332 38.7744 47.8399 35.2277 48.7999 34.9077C49.7599 34.5877 56.9332 39.041 60.3999 41.3077Z" fill="white"/>
</svg>
