<svg width="206" height="28" viewBox="0 0 206 28" fill="none" xmlns="http://www.w3.org/2000/svg">
<path d="M27.095 10.1154L18.7012 8.88355L14.9489 1.20214C14.8464 0.991826 14.6778 0.821573 14.4695 0.718086C13.9472 0.457699 13.3124 0.674688 13.0513 1.20214L9.29898 8.88355L0.905123 10.1154C0.673705 10.1488 0.462123 10.2589 0.30013 10.4258C0.10429 10.6291 -0.00362635 10.9025 9.30496e-05 11.1861C0.00381244 11.4697 0.118864 11.7401 0.319966 11.9381L6.39303 17.917L4.95824 26.3595C4.92459 26.5559 4.94612 26.7579 5.02037 26.9426C5.09462 27.1272 5.21862 27.2872 5.37833 27.4043C5.53803 27.5214 5.72703 27.591 5.92391 27.6052C6.12079 27.6194 6.31767 27.5776 6.49221 27.4845L14.0001 23.4986L21.5079 27.4845C21.7129 27.5947 21.9509 27.6314 22.179 27.5913C22.7543 27.4912 23.1411 26.9404 23.0419 26.3595L21.6071 17.917L27.6802 11.9381C27.8455 11.7745 27.9546 11.5609 27.9876 11.3272C28.0769 10.743 27.6736 10.2022 27.095 10.1154Z" fill="#FFC107"/>
<path d="M72.0627 10.1154L63.3691 8.88355L59.4828 1.20214C59.3766 0.991826 59.202 0.821573 58.9863 0.718086C58.4453 0.457699 57.7879 0.674688 57.5174 1.20214L53.6311 8.88355L44.9374 10.1154C44.6978 10.1488 44.4786 10.2589 44.3108 10.4258C44.108 10.6291 43.9962 10.9025 44.0001 11.1861C44.0039 11.4697 44.1231 11.7401 44.3314 11.9381L50.6214 17.917L49.1353 26.3595C49.1005 26.5559 49.1228 26.7579 49.1997 26.9426C49.2766 27.1272 49.405 27.2872 49.5704 27.4043C49.7358 27.5214 49.9316 27.591 50.1355 27.6052C50.3394 27.6194 50.5433 27.5776 50.7241 27.4845L58.5001 23.4986L66.2761 27.4845C66.4884 27.5947 66.7349 27.6314 66.9711 27.5913C67.5669 27.4912 67.9675 26.9404 67.8648 26.3595L66.3788 17.917L72.6687 11.9381C72.8399 11.7745 72.9529 11.5609 72.9872 11.3272C73.0796 10.743 72.6619 10.2022 72.0627 10.1154Z" fill="#FFC107"/>
<path d="M116.095 10.1154L107.701 8.88355L103.949 1.20214C103.846 0.991826 103.678 0.821573 103.47 0.718086C102.947 0.457699 102.312 0.674688 102.051 1.20214L98.299 8.88355L89.9051 10.1154C89.6737 10.1488 89.4621 10.2589 89.3001 10.4258C89.1043 10.6291 88.9964 10.9025 89.0001 11.1861C89.0038 11.4697 89.1189 11.7401 89.32 11.9381L95.393 17.917L93.9582 26.3595C93.9246 26.5559 93.9461 26.7579 94.0204 26.9426C94.0946 27.1272 94.2186 27.2872 94.3783 27.4043C94.538 27.5214 94.727 27.591 94.9239 27.6052C95.1208 27.6194 95.3177 27.5776 95.4922 27.4845L103 23.4986L110.508 27.4845C110.713 27.5947 110.951 27.6314 111.179 27.5913C111.754 27.4912 112.141 26.9404 112.042 26.3595L110.607 17.917L116.68 11.9381C116.845 11.7745 116.955 11.5609 116.988 11.3272C117.077 10.743 116.674 10.2022 116.095 10.1154Z" fill="#FFC107"/>
<path d="M160.095 10.1154L151.701 8.88355L147.949 1.20214C147.846 0.991826 147.678 0.821573 147.47 0.718086C146.947 0.457699 146.312 0.674688 146.051 1.20214L142.299 8.88355L133.905 10.1154C133.674 10.1488 133.462 10.2589 133.3 10.4258C133.104 10.6291 132.996 10.9025 133 11.1861C133.004 11.4697 133.119 11.7401 133.32 11.9381L139.393 17.917L137.958 26.3595C137.925 26.5559 137.946 26.7579 138.02 26.9426C138.095 27.1272 138.219 27.2872 138.378 27.4043C138.538 27.5214 138.727 27.591 138.924 27.6052C139.121 27.6194 139.318 27.5776 139.492 27.4845L147 23.4986L154.508 27.4845C154.713 27.5947 154.951 27.6314 155.179 27.5913C155.754 27.4912 156.141 26.9404 156.042 26.3595L154.607 17.917L160.68 11.9381C160.845 11.7745 160.955 11.5609 160.988 11.3272C161.077 10.743 160.674 10.2022 160.095 10.1154Z" fill="#FFC107"/>
<path d="M205.063 10.1154L196.369 8.88355L192.483 1.20214C192.377 0.991826 192.202 0.821573 191.986 0.718086C191.445 0.457699 190.788 0.674688 190.517 1.20214L186.631 8.88355L177.937 10.1154C177.698 10.1488 177.479 10.2589 177.311 10.4258C177.108 10.6291 176.996 10.9025 177 11.1861C177.004 11.4697 177.123 11.7401 177.331 11.9381L183.621 17.917L182.135 26.3595C182.1 26.5559 182.123 26.7579 182.2 26.9426C182.277 27.1272 182.405 27.2872 182.57 27.4043C182.736 27.5214 182.932 27.591 183.135 27.6052C183.339 27.6194 183.543 27.5776 183.724 27.4845L191.5 23.4986L199.276 27.4845C199.488 27.5947 199.735 27.6314 199.971 27.5913C200.567 27.4912 200.968 26.9404 200.865 26.3595L199.379 17.917L205.669 11.9381C205.84 11.7745 205.953 11.5609 205.987 11.3272C206.08 10.743 205.662 10.2022 205.063 10.1154Z" fill="#FFC107"/>
</svg>
