<svg width="50" height="43" viewBox="0 0 50 43" fill="none" xmlns="http://www.w3.org/2000/svg">
<path d="M49.7284 6.74129C48.4641 8.44191 46.9358 9.92539 45.2027 11.1344C45.2027 11.5787 45.2027 12.0229 45.2027 12.4918C45.2166 20.5593 42.021 28.295 36.3322 33.9647C30.6434 39.6344 22.9374 42.7638 14.9417 42.6514C10.3192 42.6669 5.75593 41.6026 1.60929 39.5416C1.3857 39.4432 1.24149 39.2201 1.24234 38.974V38.7025C1.24234 38.3481 1.52711 38.0608 1.87838 38.0608C6.42218 37.9098 10.8039 36.3211 14.4035 33.5196C10.2908 33.4361 6.59032 30.9792 4.88735 27.2014C4.80134 26.9951 4.82812 26.7584 4.95803 26.5769C5.08794 26.3954 5.3022 26.2954 5.5234 26.3129C6.77336 26.4396 8.03581 26.3223 9.2418 25.9674C4.70165 25.017 1.29023 21.2161 0.802002 16.5641C0.78465 16.3409 0.883825 16.1248 1.0637 15.9937C1.24357 15.8627 1.47815 15.8356 1.68268 15.9224C2.90106 16.4646 4.21629 16.7501 5.54786 16.7616C1.56961 14.1285 -0.148732 9.12031 1.36466 4.56941C1.52087 4.12719 1.89618 3.80051 2.35267 3.70942C2.80915 3.61832 3.27948 3.77625 3.59081 4.12516C8.95921 9.88676 16.3355 13.3201 24.1644 13.7012C23.9638 12.8943 23.8652 12.065 23.8708 11.2331C23.944 6.87118 26.6204 2.98546 30.6471 1.39513C34.6737 -0.195205 39.2536 0.824588 42.2427 3.97708C44.2802 3.58566 46.2499 2.89552 48.0894 1.9286C48.2241 1.84377 48.395 1.84377 48.5297 1.9286C48.6138 2.06453 48.6138 2.23691 48.5297 2.37285C47.6387 4.43022 46.1336 6.1558 44.2242 7.30894C45.8962 7.11341 47.5389 6.71566 49.1168 6.12428C49.2497 6.03308 49.4243 6.03308 49.5571 6.12428C49.6684 6.17563 49.7516 6.27382 49.7846 6.39271C49.8176 6.51159 49.7971 6.6391 49.7284 6.74129Z" fill="#020E35"/>
</svg>
